<svg width="10" height="14" viewBox="0 0 10 14" fill="none" xmlns="http://www.w3.org/2000/svg">
<path d="M4.99994 6.23155C6.63168 6.23155 7.95447 4.98151 7.95447 3.43951C7.95447 1.8975 6.63168 0.647461 4.99994 0.647461C3.3682 0.647461 2.04541 1.8975 2.04541 3.43951C2.04541 4.98151 3.3682 6.23155 4.99994 6.23155Z" fill="#E9098D"/>
<path d="M6.36364 7.09082H3.63636C2.67194 7.09082 1.74702 7.45286 1.06507 8.09731C0.383116 8.74175 0 9.6158 0 10.5272V13.1045C0 13.2184 0.0478896 13.3276 0.133133 13.4082C0.218377 13.4887 0.333993 13.534 0.454545 13.534H9.54545C9.66601 13.534 9.78162 13.4887 9.86687 13.4082C9.95211 13.3276 10 13.2184 10 13.1045V10.5272C10 9.6158 9.61688 8.74175 8.93493 8.09731C8.25298 7.45286 7.32806 7.09082 6.36364 7.09082Z" fill="#E9098D"/>
</svg>
