<svg width="15" height="15" viewBox="0 0 15 15" fill="none" xmlns="http://www.w3.org/2000/svg">
<path d="M13.9258 9.05695C14.082 8.51925 15 8.05488 15 7.47177C15 6.88866 14.082 6.42429 13.926 5.88659C13.7645 5.33018 14.3023 4.50652 13.9962 4.0193C13.6855 3.52517 12.6387 3.54404 12.203 3.14287C11.7673 2.74186 11.7878 1.7783 11.2508 1.49234C10.7215 1.21053 9.82667 1.70558 9.22217 1.55693C8.638 1.41334 8.1335 0.568359 7.5 0.568359C6.8665 0.568359 6.362 1.41334 5.77783 1.55693C5.17333 1.70558 4.2785 1.21053 3.74917 1.49234C3.21233 1.7783 3.23283 2.74186 2.797 3.14287C2.36133 3.54388 1.3145 3.52501 1.00383 4.0193C0.697667 4.50652 1.2355 5.33018 1.074 5.88659C0.918 6.42429 0 6.88866 0 7.47177C0 8.05488 0.918 8.51925 1.074 9.05695C1.2355 9.61336 0.697667 10.437 1.00383 10.9242C1.3145 11.4184 2.36133 11.3995 2.797 11.8007C3.23267 12.2017 3.21217 13.1652 3.74917 13.4512C4.2785 13.733 5.17333 13.238 5.77783 13.3866C6.362 13.5302 6.8665 14.3752 7.5 14.3752C8.1335 14.3752 8.638 13.5302 9.22217 13.3866C9.82667 13.238 10.7215 13.733 11.2508 13.4512C11.7877 13.1652 11.7672 12.2017 12.203 11.8007C12.6387 11.3997 13.6855 11.4185 13.9962 10.9242C14.3023 10.437 13.7643 9.61336 13.9258 9.05695ZM6.53067 9.82062L4.40133 7.84839L5.4355 6.8905L6.56083 7.9323L9.59467 5.12292L10.5987 6.05273L6.53067 9.82062Z" fill="#E9098D"/>
</svg>
