<svg width="25" height="25" viewBox="0 0 25 25" fill="none" xmlns="http://www.w3.org/2000/svg">
<path fill-rule="evenodd" clip-rule="evenodd" d="M22.0283 0H2.97166C1.33036 0 0 1.32695 0 2.96484V22.0352C0 23.6724 1.33036 25 2.97166 25H22.0283C23.6696 25 25 23.6724 25 22.0352V2.96484C25 1.32695 23.6696 0 22.0283 0ZM17.9691 3.90576C17.9691 3.47481 18.3189 3.125 18.7498 3.125H21.0935C21.5251 3.125 21.8749 3.47481 21.8749 3.90576V6.25008C21.8749 6.68104 21.5251 7.03084 21.0935 7.03084H18.7498C18.3189 7.03084 17.9691 6.68104 17.9691 6.25008V3.90576ZM12.5292 7.73291C15.1845 7.73291 17.3372 9.88085 17.3372 12.5293C17.3372 15.1784 15.1845 17.3257 12.5292 17.3257C9.87464 17.3257 7.72192 15.1784 7.72192 12.5293C7.72192 9.88085 9.87464 7.73291 12.5292 7.73291ZM22.6565 21.8751C22.6565 22.3061 22.3067 22.6566 21.875 22.6566H3.12519C2.69356 22.6566 2.34375 22.3061 2.34375 21.8751V10.1562H5.46884C5.06175 10.742 4.92401 11.8351 4.92401 12.5292C4.92401 16.7126 8.33617 20.1166 12.5291 20.1166C16.7227 20.1166 20.1348 16.7126 20.1348 12.5292C20.1348 11.8351 20.036 10.759 19.5314 10.1562H22.6565V21.8751Z" fill="#E9098D"/>
</svg>
