<svg width="9" height="13" viewBox="0 0 9 13" fill="none" xmlns="http://www.w3.org/2000/svg">
<path d="M4.5 0.568359C3.30653 0.568359 2.16193 1.00898 1.31802 1.7933C0.474106 2.57762 0 3.64138 0 4.75058C0 7.06002 4.5 12.5343 4.5 12.5343C4.5 12.5343 9 7.06002 9 4.75058C9 3.64138 8.52589 2.57762 7.68198 1.7933C6.83807 1.00898 5.69347 0.568359 4.5 0.568359ZM4.5 6.51755C4.12397 6.51755 3.75639 6.41392 3.44373 6.21976C3.13107 6.0256 2.88739 5.74964 2.74349 5.42677C2.59959 5.1039 2.56193 4.74861 2.63529 4.40586C2.70865 4.0631 2.88973 3.74825 3.15562 3.50114C3.42151 3.25402 3.76028 3.08573 4.12909 3.01755C4.49789 2.94937 4.88017 2.98437 5.22757 3.1181C5.57498 3.25184 5.87191 3.47832 6.08082 3.7689C6.28973 4.05947 6.40124 4.4011 6.40124 4.75058C6.40124 4.98262 6.35206 5.21239 6.25651 5.42677C6.16097 5.64115 6.02092 5.83594 5.84438 6.00002C5.66783 6.16409 5.45824 6.29425 5.22757 6.38305C4.9969 6.47185 4.74967 6.51755 4.5 6.51755Z" fill="#E9098D"/>
</svg>
