<svg width="100" height="23" viewBox="0 0 100 23" fill="none" xmlns="http://www.w3.org/2000/svg">
<path d="M16 0.255859H0V21.9702H16V0.255859Z" fill="#030708"/>
<path d="M72.591 0.255859H49.6819V21.9702H72.591V0.255859Z" fill="#030708"/>
<path d="M99.9999 11.1341C99.9999 17.1171 94.7272 21.9704 88.2272 21.9704C81.7272 21.9704 76.4545 17.1171 76.4545 11.1341C76.4545 5.15116 81.7272 0.297852 88.2272 0.297852C94.7272 0.297852 99.9999 5.15116 99.9999 11.1341Z" fill="#030708"/>
<path d="M33.3636 0.214173C25.9546 0.632562 20.3182 6.44816 20.7727 13.2679C21 16.9497 23 20.1713 25.9091 22.2632L43.5909 3.77048C41 1.38566 37.3636 0.00497912 33.3636 0.214173Z" fill="#030708"/>
</svg>
