<svg width="100" height="24" viewBox="0 0 100 24" fill="none" xmlns="http://www.w3.org/2000/svg">
<path d="M16 0.0683594H0V23.6593H16V0.0683594Z" fill="#3BC4F2"/>
<path d="M72.591 0.0683594H49.6819V23.6593H72.591V0.0683594Z" fill="#3BC4F2"/>
<path d="M99.9999 11.886C99.9999 18.386 94.7272 23.6587 88.2272 23.6587C81.7272 23.6587 76.4545 18.386 76.4545 11.886C76.4545 5.38601 81.7272 0.113281 88.2272 0.113281C94.7272 0.113281 99.9999 5.38601 99.9999 11.886Z" fill="#3BC4F2"/>
<path d="M33.3636 0.0226128C25.9546 0.477158 20.3182 6.79533 20.7727 14.2044C21 18.2044 23 21.7044 25.9091 23.9771L43.5909 3.88625C41 1.29534 37.3636 -0.20466 33.3636 0.0226128Z" fill="#3BC4F2"/>
</svg>
