<svg width="14" height="13" viewBox="0 0 14 13" fill="none" xmlns="http://www.w3.org/2000/svg">
<path d="M13.4204 12.0904L13.4369 12.1056L13.4547 12.1193C13.4758 12.1356 13.4978 12.167 13.4999 12.2254C13.5017 12.2787 13.485 12.3329 13.4558 12.3743C13.4217 12.3972 13.3578 12.4206 13.2402 12.4206C13.1 12.4206 13.0362 12.3874 13.0081 12.3614L10.3081 9.8704L10.0116 9.59682L9.68155 9.82884C8.6734 10.5375 7.47535 10.9355 6.17876 10.9355C4.64142 10.9355 3.20519 10.3591 2.15633 9.39135L2.15641 9.39126L2.14813 9.38395C1.06344 8.42671 0.5 7.12702 0.5 5.73484C0.5 4.34267 1.06344 3.04298 2.14813 2.08574L2.15643 2.07841L2.1644 2.07072C3.2033 1.06863 4.63184 0.53418 6.17876 0.53418C7.72567 0.53418 9.15421 1.06863 10.1931 2.07072L10.2011 2.07841L10.2094 2.08574C11.2941 3.04298 11.8575 4.34267 11.8575 5.73484C11.8575 6.90198 11.4374 7.98901 10.6739 8.91351L10.3726 9.27844L10.7204 9.59937L13.4204 12.0904ZM1.05767 5.73484C1.05767 7.02917 1.58708 8.21475 2.5686 9.12033C3.54858 10.0245 4.81387 10.4984 6.17876 10.4984C7.54364 10.4984 8.80893 10.0245 9.78891 9.12033C10.7704 8.21475 11.2998 7.02917 11.2998 5.73484C11.2998 4.44051 10.7704 3.25494 9.78891 2.34936C8.80893 1.44521 7.54365 0.971322 6.17876 0.971322C4.81387 0.971322 3.54858 1.44521 2.5686 2.34936C1.58708 3.25494 1.05767 4.44051 1.05767 5.73484Z" stroke="#030708"/>
</svg>
