<svg width="50" height="32" viewBox="0 0 50 32" fill="none" xmlns="http://www.w3.org/2000/svg">
<rect x="0.5" y="0.5" width="49" height="31" rx="3.5" fill="white" stroke="#DEDEDE"/>
<path d="M34.8801 6H15V26H34.8801V19.3993C34.9577 19.2862 35 19.1378 35 18.9611C35 18.7562 34.9577 18.629 34.8801 18.523" fill="url(#paint0_radial)"/>
<path d="M16.7913 14.6505L16.4104 13.7177L16.0296 14.6505H16.7913ZM25.2186 14.283C25.141 14.3325 25.0494 14.3325 24.9436 14.3325H24.2666V13.8095H24.9577C25.0564 13.8095 25.1551 13.8166 25.2257 13.8519C25.2962 13.8873 25.3456 13.9579 25.3456 14.0569C25.3315 14.1629 25.2891 14.2406 25.2186 14.283ZM30.0635 14.6505L29.6756 13.7177L29.2877 14.6505H30.0635ZM21.0367 15.6682H20.4654V13.8307L19.6544 15.6682H19.1608L18.3498 13.8307V15.6682H17.2073L16.9958 15.1452H15.8322L15.6135 15.6682H15.0071L16.0085 13.3219H16.8406L17.7856 15.541V13.3219H18.6953L19.4288 14.912L20.0987 13.3219H21.0296L21.0367 15.6682ZM23.3145 15.6682H21.4528V13.3219H23.3216V13.8095H22.0099V14.2336H23.2863V14.7141H22.0099V15.1806H23.3145V15.6682ZM25.952 13.9509C25.952 14.3254 25.7052 14.5162 25.5571 14.5728C25.677 14.6223 25.7828 14.7 25.8322 14.7707C25.9097 14.8837 25.9238 14.9897 25.9238 15.2018V15.6611H25.3597V15.3643C25.3597 15.223 25.3738 15.018 25.268 14.9049C25.1834 14.8201 25.0635 14.806 24.859 14.806H24.2595V15.6611H23.7024V13.3148H24.9859C25.268 13.3148 25.4795 13.3219 25.6629 13.4279C25.8463 13.541 25.952 13.6894 25.952 13.9509ZM26.8477 15.6682H26.2764V13.3219H26.8477V15.6682ZM33.4626 15.6682H32.6728L31.615 13.9085V15.6682H30.4796L30.2609 15.1452H29.0973L28.8858 15.6682H28.2299C27.9549 15.6682 27.6164 15.6046 27.4189 15.4067C27.2214 15.2088 27.1227 14.9403 27.1227 14.5092C27.1227 14.1629 27.1862 13.8449 27.426 13.5905C27.6093 13.4067 27.8914 13.3148 28.2722 13.3148H28.8152V13.8166H28.2863C28.0818 13.8166 27.969 13.8449 27.8561 13.9579C27.7574 14.0569 27.6939 14.2406 27.6939 14.488C27.6939 14.7424 27.7433 14.9191 27.8491 15.0392C27.9337 15.1311 28.0889 15.1594 28.237 15.1594H28.4908L29.2807 13.3148H30.1199L31.0649 15.5339V13.3148H31.9182L32.8985 14.9473V13.3148H33.4697V15.6682H33.4626ZM15 16.1276H15.952L16.1707 15.6046H16.6502L16.8618 16.1276H18.7377V15.7318L18.9069 16.1346H19.8801L20.0494 15.7318V16.1346H24.7179V15.2795H24.8096C24.8731 15.2795 24.8942 15.2866 24.8942 15.3926V16.1346H27.3061V15.9367C27.5035 16.0427 27.8068 16.1346 28.2017 16.1346H29.2172L29.4358 15.6117H29.9154L30.1269 16.1346H32.0874V15.6399L32.3836 16.1346H33.9492V12.8555H32.3977V13.2442L32.1791 12.8555H30.5853V13.2442L30.3879 12.8555H28.237C27.8773 12.8555 27.5599 12.9049 27.3061 13.0463V12.8555H25.8181V13.0463C25.6559 12.9049 25.4302 12.8555 25.1834 12.8555H19.7673L19.4076 13.7035L19.0339 12.8555H17.3202V13.2442L17.1368 12.8555H15.677L15 14.4102V16.1276Z" fill="white"/>
<path d="M34.88 17.852H33.8645C33.7658 17.852 33.6952 17.8591 33.6388 17.8944C33.5824 17.9297 33.5542 17.9863 33.5542 18.064C33.5542 18.1559 33.6036 18.2124 33.6741 18.2407C33.7305 18.2619 33.794 18.2689 33.8927 18.2689L34.1959 18.276C34.4992 18.2831 34.7037 18.3396 34.8306 18.4668C34.8518 18.488 34.8659 18.5022 34.88 18.5234V17.852ZM34.88 19.3997C34.746 19.5976 34.478 19.6965 34.1184 19.6965H33.0394V19.1947H34.1113C34.2171 19.1947 34.2947 19.1806 34.337 19.1382C34.3793 19.1029 34.4005 19.0463 34.4005 18.9827C34.4005 18.9121 34.3723 18.8626 34.3299 18.8273C34.2876 18.7919 34.2312 18.7778 34.1325 18.7778C33.6106 18.7566 32.9548 18.7919 32.9548 18.0499C32.9548 17.7106 33.1734 17.3502 33.7587 17.3502H34.873V16.8838H33.8363C33.526 16.8838 33.3003 16.9615 33.1381 17.0746V16.8838H31.6078C31.361 16.8838 31.0789 16.9474 30.9378 17.0746V16.8838H28.2086V17.0746C27.99 16.9191 27.6233 16.8838 27.4541 16.8838H25.6487V17.0746C25.4794 16.905 25.0916 16.8838 24.8589 16.8838H22.8419L22.3835 17.3856L21.9534 16.8838H18.9562V20.1559H21.911L22.3835 19.647L22.8349 20.1559H24.6543V19.3856H24.8306C25.0704 19.3926 25.3596 19.3785 25.6064 19.2725V20.1559H27.1085V19.3007H27.179C27.2707 19.3007 27.2778 19.3078 27.2778 19.3997V20.1559H31.8546C32.1438 20.1559 32.447 20.0781 32.6163 19.9439V20.1559H34.062C34.3652 20.1559 34.6543 20.1135 34.88 20.0075V19.3997ZM32.6515 18.4598C32.7573 18.5728 32.8208 18.7142 32.8208 18.9545C32.8208 19.4562 32.5034 19.6965 31.9463 19.6965H30.8603V19.1947H31.9463C32.0521 19.1947 32.1297 19.1806 32.172 19.1382C32.2072 19.1029 32.2354 19.0463 32.2354 18.9827C32.2354 18.9121 32.2072 18.8626 32.1649 18.8273C32.1226 18.7919 32.0662 18.7778 31.9675 18.7778C31.4456 18.7566 30.7897 18.7919 30.7897 18.0499C30.7897 17.7106 31.0013 17.3502 31.5866 17.3502H32.7079V17.852H31.6854C31.5866 17.852 31.5161 17.8591 31.4597 17.8944C31.3962 17.9297 31.3751 17.9863 31.3751 18.064C31.3751 18.1559 31.4244 18.2124 31.495 18.2407C31.5514 18.2619 31.6148 18.2689 31.7136 18.2689L32.0168 18.276C32.3201 18.2831 32.5246 18.3326 32.6515 18.4598ZM27.6092 18.3184C27.5316 18.3608 27.44 18.3679 27.3342 18.3679H26.6572V17.8449H27.3483C27.447 17.8449 27.5457 17.8449 27.6163 17.8873C27.6868 17.9227 27.7291 18.0004 27.7291 18.0993C27.7291 18.1912 27.6868 18.276 27.6092 18.3184ZM27.9477 18.6082C28.0747 18.6576 28.1734 18.7354 28.2227 18.806C28.3003 18.9191 28.3144 19.0251 28.3144 19.2371V19.7036H27.7503V19.4138C27.7503 19.2725 27.7644 19.0675 27.6586 18.9545C27.5739 18.8697 27.4541 18.8485 27.2495 18.8485H26.6501V19.7036H26.0859V17.3573H27.3765C27.6586 17.3573 27.8631 17.3714 28.0464 17.4704C28.2227 17.5764 28.3356 17.7248 28.3356 17.9933C28.3426 18.3608 28.0958 18.5516 27.9477 18.6082ZM28.6529 17.3573H30.5147V17.8449H29.203V18.2689H30.4794V18.7495H29.203V19.2159H30.5147V19.7036H28.6529V17.3573ZM24.8871 18.4386H24.1677V17.8449H24.8941C25.0986 17.8449 25.2326 17.9297 25.2326 18.1347C25.2326 18.3326 25.0986 18.4386 24.8871 18.4386ZM23.6036 19.4845L22.7432 18.5304L23.6036 17.6046V19.4845ZM21.3892 19.2089H20.014V18.7424H21.2411V18.2619H20.014V17.8379H21.4174L22.0309 18.5234L21.3892 19.2089ZM25.8321 18.1276C25.8321 18.7778 25.3455 18.9121 24.8589 18.9121H24.1607V19.6965H23.0747L22.3835 18.9191L21.6713 19.6965H19.4569V17.3502H21.7065L22.3976 18.1205L23.1099 17.3502H24.8941C25.3314 17.3573 25.8321 17.4774 25.8321 18.1276Z" fill="white"/>
<defs>
<radialGradient id="paint0_radial" cx="0" cy="0" r="1" gradientUnits="userSpaceOnUse" gradientTransform="translate(18.5083 9.49357) scale(18.6584 18.698)">
<stop stop-color="#9DD5F6"/>
<stop offset="0.0711" stop-color="#98D3F5"/>
<stop offset="0.1575" stop-color="#89CEF3"/>
<stop offset="0.2516" stop-color="#70C6EF"/>
<stop offset="0.3514" stop-color="#4EBBEA"/>
<stop offset="0.4546" stop-color="#23ADE3"/>
<stop offset="0.5" stop-color="#0DA6E0"/>
<stop offset="1" stop-color="#2E77BC"/>
</radialGradient>
</defs>
</svg>
