<svg width="50" height="32" viewBox="0 0 50 32" fill="none" xmlns="http://www.w3.org/2000/svg">
<rect x="0.5" y="0.5" width="49" height="31" rx="3.5" fill="white" stroke="#DEDEDE"/>
<path d="M17.3673 25.5818V24.3458C17.3673 23.8719 17.0789 23.5629 16.5845 23.5629C16.3373 23.5629 16.0695 23.6453 15.8841 23.9131C15.7399 23.6865 15.5338 23.5629 15.2248 23.5629C15.0188 23.5629 14.8128 23.6247 14.648 23.8513V23.6041H14.2154V25.5818H14.648V24.49C14.648 24.1397 14.8334 23.9749 15.1218 23.9749C15.4102 23.9749 15.5544 24.1603 15.5544 24.49V25.5818H15.9871V24.49C15.9871 24.1397 16.1931 23.9749 16.4609 23.9749C16.7493 23.9749 16.8935 24.1603 16.8935 24.49V25.5818H17.3673ZM23.7742 23.6041H23.0738V23.0067H22.6411V23.6041H22.2497V23.9955H22.6411V24.902C22.6411 25.3552 22.8266 25.623 23.321 25.623C23.5064 25.623 23.7124 25.5612 23.8566 25.4788L23.733 25.108C23.6094 25.1904 23.4652 25.211 23.3622 25.211C23.1562 25.211 23.0738 25.0874 23.0738 24.8814V23.9955H23.7742V23.6041ZM27.4411 23.5629C27.1939 23.5629 27.0291 23.6865 26.9261 23.8513V23.6041H26.4935V25.5818H26.9261V24.4694C26.9261 24.1397 27.0703 23.9543 27.3381 23.9543C27.4205 23.9543 27.5236 23.9749 27.606 23.9955L27.7296 23.5835C27.6472 23.5629 27.5236 23.5629 27.4411 23.5629ZM21.8995 23.7689C21.6935 23.6247 21.4051 23.5629 21.0961 23.5629C20.6017 23.5629 20.272 23.8101 20.272 24.2015C20.272 24.5312 20.5193 24.7166 20.9519 24.7784L21.1579 24.799C21.3845 24.8402 21.5081 24.902 21.5081 25.005C21.5081 25.1492 21.3433 25.2522 21.0549 25.2522C20.7665 25.2522 20.5399 25.1492 20.3957 25.0462L20.1896 25.3758C20.4163 25.5406 20.7253 25.623 21.0343 25.623C21.6111 25.623 21.9407 25.3552 21.9407 24.9844C21.9407 24.6342 21.6729 24.4488 21.2609 24.387L21.0549 24.3664C20.8695 24.3458 20.7253 24.3046 20.7253 24.1809C20.7253 24.0367 20.8695 23.9543 21.0961 23.9543C21.3433 23.9543 21.5905 24.0573 21.7141 24.1191L21.8995 23.7689ZM33.3948 23.5629C33.1476 23.5629 32.9828 23.6865 32.8798 23.8513V23.6041H32.4472V25.5818H32.8798V24.4694C32.8798 24.1397 33.024 23.9543 33.2918 23.9543C33.3742 23.9543 33.4772 23.9749 33.5596 23.9955L33.6832 23.5835C33.6008 23.5629 33.4772 23.5629 33.3948 23.5629ZM27.8738 24.593C27.8738 25.1904 28.2858 25.623 28.9244 25.623C29.2128 25.623 29.4188 25.5612 29.6248 25.3964L29.4188 25.0462C29.254 25.1698 29.0892 25.2316 28.9038 25.2316C28.5536 25.2316 28.3064 24.9844 28.3064 24.593C28.3064 24.2221 28.5536 23.9749 28.9038 23.9543C29.0892 23.9543 29.254 24.0161 29.4188 24.1397L29.6248 23.7895C29.4188 23.6247 29.2128 23.5629 28.9244 23.5629C28.2858 23.5629 27.8738 23.9955 27.8738 24.593ZM31.8703 24.593V23.6041H31.4377V23.8513C31.2935 23.6659 31.0875 23.5629 30.8197 23.5629C30.2635 23.5629 29.8308 23.9955 29.8308 24.593C29.8308 25.1904 30.2635 25.623 30.8197 25.623C31.1081 25.623 31.3141 25.52 31.4377 25.3346V25.5818H31.8703V24.593ZM30.2841 24.593C30.2841 24.2427 30.5107 23.9543 30.8815 23.9543C31.2317 23.9543 31.4789 24.2221 31.4789 24.593C31.4789 24.9432 31.2317 25.2316 30.8815 25.2316C30.5107 25.211 30.2841 24.9432 30.2841 24.593ZM25.1132 23.5629C24.5364 23.5629 24.1244 23.9749 24.1244 24.593C24.1244 25.211 24.5364 25.623 25.1339 25.623C25.4223 25.623 25.7107 25.5406 25.9373 25.3552L25.7313 25.0462C25.5665 25.1698 25.3605 25.2522 25.1545 25.2522C24.8866 25.2522 24.6188 25.1286 24.557 24.7784H26.0197V24.6136C26.0403 23.9749 25.6695 23.5629 25.1132 23.5629ZM25.1132 23.9337C25.3811 23.9337 25.5665 24.0985 25.6077 24.4076H24.5776C24.6188 24.1397 24.8042 23.9337 25.1132 23.9337ZM35.8463 24.593V22.8213H35.4137V23.8513C35.2695 23.6659 35.0635 23.5629 34.7957 23.5629C34.2394 23.5629 33.8068 23.9955 33.8068 24.593C33.8068 25.1904 34.2394 25.623 34.7957 25.623C35.0841 25.623 35.2901 25.52 35.4137 25.3346V25.5818H35.8463V24.593ZM34.26 24.593C34.26 24.2427 34.4866 23.9543 34.8575 23.9543C35.2077 23.9543 35.4549 24.2221 35.4549 24.593C35.4549 24.9432 35.2077 25.2316 34.8575 25.2316C34.4866 25.211 34.26 24.9432 34.26 24.593ZM19.7982 24.593V23.6041H19.3656V23.8513C19.2214 23.6659 19.0154 23.5629 18.7476 23.5629C18.1914 23.5629 17.7587 23.9955 17.7587 24.593C17.7587 25.1904 18.1914 25.623 18.7476 25.623C19.036 25.623 19.242 25.52 19.3656 25.3346V25.5818H19.7982V24.593ZM18.1914 24.593C18.1914 24.2427 18.418 23.9543 18.7888 23.9543C19.139 23.9543 19.3862 24.2221 19.3862 24.593C19.3862 24.9432 19.139 25.2316 18.7888 25.2316C18.418 25.211 18.1914 24.9432 18.1914 24.593Z" fill="black"/>
<path d="M28.2446 8.58594H21.7553V20.246H28.2446V8.58594Z" fill="#FF5F00"/>
<path d="M22.1674 14.4163C22.1674 12.0472 23.2798 9.94592 24.9897 8.58627C23.7331 7.59742 22.1468 7 20.4163 7C16.3167 7 13 10.3167 13 14.4163C13 18.5159 16.3167 21.8326 20.4163 21.8326C22.1468 21.8326 23.7331 21.2352 24.9897 20.2464C23.2798 18.9073 22.1674 16.7854 22.1674 14.4163Z" fill="#EB001B"/>
<path d="M37 14.4163C37 18.5159 33.6833 21.8326 29.5837 21.8326C27.8532 21.8326 26.267 21.2352 25.0103 20.2464C26.7408 18.8867 27.8326 16.7854 27.8326 14.4163C27.8326 12.0472 26.7202 9.94592 25.0103 8.58627C26.267 7.59742 27.8532 7 29.5837 7C33.6833 7 37 10.3373 37 14.4163Z" fill="#F79E1B"/>
</svg>
