<svg width="50" height="32" viewBox="0 0 50 32" fill="none" xmlns="http://www.w3.org/2000/svg">
<rect x="0.5" y="0.5" width="49" height="31" rx="3.5" fill="white" stroke="#DEDEDE"/>
<path d="M22.8799 20.7807H20.2906L21.9189 10.5225H24.5081L22.8799 20.7807Z" fill="#0066B3"/>
<path d="M18.102 10.5216L15.6196 17.5707L15.3259 16.0621L14.4451 11.4267C14.4451 11.4267 14.3383 10.4941 13.2172 10.4941H9.13322L9.07983 10.6861C9.07983 10.6861 10.3344 10.9604 11.8025 11.8656L14.0714 20.7798H16.7674L20.9047 10.5216H18.102Z" fill="#0066B3"/>
<path d="M38.5223 20.7807H40.8979L38.8159 10.5225H36.7338C35.7729 10.5225 35.5327 11.2905 35.5327 11.2905L31.6889 20.7807H34.3849L34.9187 19.2447H38.2286L38.5223 20.7807ZM35.6661 17.1327L37.0275 13.2927L37.8016 17.1327H35.6661Z" fill="#0066B3"/>
<path d="M31.8755 12.9906L32.2492 10.7963C32.2492 10.7963 31.1014 10.3574 29.9002 10.3574C28.6189 10.3574 25.5493 10.9334 25.5493 13.7586C25.5493 16.4191 29.1528 16.4466 29.1528 17.8454C29.1528 19.2443 25.923 18.9974 24.8553 18.1197L24.4816 20.4237C24.4816 20.4237 25.6294 20.9997 27.4178 20.9997C29.1795 20.9997 31.8755 20.0671 31.8755 17.4888C31.8755 14.8283 28.2453 14.5814 28.2453 13.402C28.2453 12.1951 30.7544 12.3597 31.8755 12.9906Z" fill="#0066B3"/>
<path d="M15.3259 16.0347L14.4451 11.4267C14.4451 11.4267 14.3383 10.4941 13.2172 10.4941H9.13322L9.07983 10.6861C9.07983 10.6861 11.0551 11.0976 12.9236 12.6884C14.7387 14.1696 15.3259 16.0347 15.3259 16.0347Z" fill="#FAA634"/>
</svg>
